<svg id="mermaidSvgChart" width="100%" xmlns="http://www.w3.org/2000/svg" xmlns:xlink="http://www.w3.org/1999/xlink" height="247.28125" style="max-width: 278.515625px;" viewBox="-20 -20 278.515625 247.28125"><style>#mermaidSvgChart{font-family:"trebuchet ms",verdana,arial,sans-serif;font-size:16px;fill:#000000;}#mermaidSvgChart .error-icon{fill:#552222;}#mermaidSvgChart .error-text{fill:#552222;stroke:#552222;}#mermaidSvgChart .edge-thickness-normal{stroke-width:2px;}#mermaidSvgChart .edge-thickness-thick{stroke-width:3.5px;}#mermaidSvgChart .edge-pattern-solid{stroke-dasharray:0;}#mermaidSvgChart .edge-pattern-dashed{stroke-dasharray:3;}#mermaidSvgChart .edge-pattern-dotted{stroke-dasharray:2;}#mermaidSvgChart .marker{fill:#666;stroke:#666;}#mermaidSvgChart .marker.cross{stroke:#666;}#mermaidSvgChart svg{font-family:"trebuchet ms",verdana,arial,sans-serif;font-size:16px;}#mermaidSvgChart g.classGroup text{fill:#999;fill:#111111;stroke:none;font-family:"trebuchet ms",verdana,arial,sans-serif;font-size:10px;}#mermaidSvgChart g.classGroup text .title{font-weight:bolder;}#mermaidSvgChart .classTitle{font-weight:bolder;}#mermaidSvgChart .node rect,#mermaidSvgChart .node circle,#mermaidSvgChart .node ellipse,#mermaidSvgChart .node polygon,#mermaidSvgChart .node path{fill:#eee;stroke:#999;stroke-width:1px;}#mermaidSvgChart .divider{stroke:#999;stroke:1;}#mermaidSvgChart g.clickable{cursor:pointer;}#mermaidSvgChart g.classGroup rect{fill:#eee;stroke:#999;}#mermaidSvgChart g.classGroup line{stroke:#999;stroke-width:1;}#mermaidSvgChart .classLabel .box{stroke:none;stroke-width:0;fill:#eee;opacity:0.5;}#mermaidSvgChart .classLabel .label{fill:#999;font-size:10px;}#mermaidSvgChart .relation{stroke:#666;stroke-width:1;fill:none;}#mermaidSvgChart .dashed-line{stroke-dasharray:3;}#mermaidSvgChart #compositionStart,#mermaidSvgChart .composition{fill:#666 !important;stroke:#666 !important;stroke-width:1;}#mermaidSvgChart #compositionEnd,#mermaidSvgChart .composition{fill:#666 !important;stroke:#666 !important;stroke-width:1;}#mermaidSvgChart #dependencyStart,#mermaidSvgChart .dependency{fill:#666 !important;stroke:#666 !important;stroke-width:1;}#mermaidSvgChart #dependencyStart,#mermaidSvgChart .dependency{fill:#666 !important;stroke:#666 !important;stroke-width:1;}#mermaidSvgChart #extensionStart,#mermaidSvgChart .extension{fill:#666 !important;stroke:#666 !important;stroke-width:1;}#mermaidSvgChart #extensionEnd,#mermaidSvgChart .extension{fill:#666 !important;stroke:#666 !important;stroke-width:1;}#mermaidSvgChart #aggregationStart,#mermaidSvgChart .aggregation{fill:#eee !important;stroke:#666 !important;stroke-width:1;}#mermaidSvgChart #aggregationEnd,#mermaidSvgChart .aggregation{fill:#eee !important;stroke:#666 !important;stroke-width:1;}#mermaidSvgChart .edgeTerminals{font-size:11px;}#mermaidSvgChart:root{--mermaid-font-family:"trebuchet ms",verdana,arial,sans-serif;}#mermaidSvgChart class{fill:apa;}</style><g></g><defs><marker id="extensionStart" class="extension" refX="0" refY="7" markerWidth="190" markerHeight="240" orient="auto"><path d="M 1,7 L18,13 V 1 Z"></path></marker></defs><defs><marker id="extensionEnd" refX="19" refY="7" markerWidth="20" markerHeight="28" orient="auto"><path d="M 1,1 V 13 L18,7 Z"></path></marker></defs><defs><marker id="compositionStart" class="extension" refX="0" refY="7" markerWidth="190" markerHeight="240" orient="auto"><path d="M 18,7 L9,13 L1,7 L9,1 Z"></path></marker></defs><defs><marker id="compositionEnd" refX="19" refY="7" markerWidth="20" markerHeight="28" orient="auto"><path d="M 18,7 L9,13 L1,7 L9,1 Z"></path></marker></defs><defs><marker id="aggregationStart" class="extension" refX="0" refY="7" markerWidth="190" markerHeight="240" orient="auto"><path d="M 18,7 L9,13 L1,7 L9,1 Z"></path></marker></defs><defs><marker id="aggregationEnd" refX="19" refY="7" markerWidth="20" markerHeight="28" orient="auto"><path d="M 18,7 L9,13 L1,7 L9,1 Z"></path></marker></defs><defs><marker id="dependencyStart" class="extension" refX="0" refY="7" markerWidth="190" markerHeight="240" orient="auto"><path d="M 5,7 L9,13 L1,7 L9,1 Z"></path></marker></defs><defs><marker id="dependencyEnd" refX="19" refY="7" markerWidth="20" markerHeight="28" orient="auto"><path d="M 18,7 L9,13 L14,7 L9,1 Z"></path></marker></defs><g id="classid-patient-0" class="classGroup" transform="translate(0,0 )"><rect x="0" y="0" width="44.5625" height="93.640625" class=" "></rect><text y="15" x="0"><tspan class="title" x="5">patient</tspan></text><line x1="0" y1="22.015625" y2="22.015625" x2="44.5625"></line><text x="5" y="32.015625" fill="white" class="classText"><tspan x="5">born</tspan><tspan x="5" dy="10">city</tspan><tspan x="5" dy="10">id</tspan><tspan x="5" dy="10">lat</tspan><tspan x="5" dy="10">long</tspan><tspan x="5" dy="10">name</tspan></text><line x1="0" y1="89.03125" y2="89.03125" x2="44.5625"></line><text x="5" y="104.03125" fill="white" class="classText"></text></g><g id="classid-hospital-1" class="classGroup" transform="translate(180.8828125,143.640625 )"><rect x="0" y="0" width="47.203125" height="63.640625" class=" "></rect><text y="15" x="0"><tspan class="title" x="5">hospital</tspan></text><line x1="0" y1="22.015625" y2="22.015625" x2="47.203125"></line><text x="5" y="32.015625" fill="white" class="classText"><tspan x="5">id</tspan><tspan x="5" dy="10">name</tspan><tspan x="5" dy="10">num</tspan></text><line x1="0" y1="59.03125" y2="59.03125" x2="47.203125"></line><text x="5" y="74.03125" fill="white" class="classText"></text></g><g id="classid-city-2" class="classGroup" transform="translate(16.09375,148.640625 )"><rect x="0" y="0" width="32.375" height="53.640625" class=" "></rect><text y="15" x="0"><tspan class="title" x="6.953125">city</tspan></text><line x1="0" y1="22.015625" y2="22.015625" x2="32.375"></line><text x="5" y="32.015625" fill="white" class="classText"><tspan x="5">city</tspan><tspan x="5" dy="10">id</tspan></text><line x1="0" y1="49.03125" y2="49.03125" x2="32.375"></line><text x="5" y="64.03125" fill="white" class="classText"></text></g><g id="classid-contact-3" class="classGroup" transform="translate(94.5625,10 )"><rect x="0" y="0" width="45.890625" height="73.640625" class=" "></rect><text y="15" x="0"><tspan class="title" x="5">contact</tspan></text><line x1="0" y1="22.015625" y2="22.015625" x2="45.890625"></line><text x="5" y="32.015625" fill="white" class="classText"><tspan x="5">addr</tspan><tspan x="5" dy="10">city</tspan><tspan x="5" dy="10">id</tspan><tspan x="5" dy="10">tel</tspan></text><line x1="0" y1="69.03125" y2="69.03125" x2="45.890625"></line><text x="5" y="84.03125" fill="white" class="classText"></text></g><g id="classid-location-4" class="classGroup" transform="translate(190.453125,15 )"><rect x="0" y="0" width="48.0625" height="63.640625" class=" "></rect><text y="15" x="0"><tspan class="title" x="5">location</tspan></text><line x1="0" y1="22.015625" y2="22.015625" x2="48.0625"></line><text x="5" y="32.015625" fill="white" class="classText"><tspan x="5">id</tspan><tspan x="5" dy="10">lat</tspan><tspan x="5" dy="10">long</tspan></text><line x1="0" y1="59.03125" y2="59.03125" x2="48.0625"></line><text x="5" y="74.03125" fill="white" class="classText"></text></g><path d="M22.28125,93.640625L22.28125,97.80729166666667C22.28125,101.97395833333333,22.28125,110.30729166666667,23.161217001237457,119.47395833333333C24.041184002474907,128.640625,25.801118004949814,138.640625,26.68108500618727,143.640625L27.56105200742472,148.640625" id="edge0" class="relation" marker-end="url(#extensionEnd)"></path><g class="classLabel"><rect class="box" x="16.03125" y="109.21875" width="13.46875" height="17.015625"></rect><text class="label" x="22.754531707933157" y="121.32982645452957" fill="red" text-anchor="middle">id</text></g><path d="M98.2245105821005,83.640625L95.1695140267504,89.47395833333333C92.11451747140033,95.30729166666667,86.00452436070016,106.97395833333333,77.71189759701674,119.05772804458256C69.41927083333333,131.14149775583175,58.944010416666664,143.64237051166353,53.706380208333336,149.89280688957942L48.46875,156.14324326749528" id="edge1" class="relation" marker-end="url(#extensionEnd)"></path><g class="classLabel"><rect class="box" x="70.15625" y="110.140625" width="13.46875" height="17.015625"></rect><text class="label" x="76.8695903377485" y="122.25050198003203" fill="red" text-anchor="middle">id</text></g><path d="M137.23970301792124,83.640625L140.36576813993437,89.47395833333333C143.4918332619475,95.30729166666667,149.74396350597374,106.97395833333333,157.0178150863202,117.66781706930233C164.29166666666666,128.36167580527135,172.58723958333334,138.08272661054272,176.73502604166666,142.94325201317838L180.8828125,147.80377741581407" id="edge2" class="relation" marker-end="url(#extensionEnd)"></path><g class="classLabel"><rect class="box" x="148.953125" y="105.921875" width="13.46875" height="17.015625"></rect><text class="label" x="155.67241848877248" y="118.03663704172035" fill="red" text-anchor="middle">id</text></g><path d="M214.484375,78.640625L214.484375,85.30729166666667C214.484375,91.97395833333333,214.484375,105.30729166666667,213.75106916563547,116.140625C213.0177633312709,126.97395833333333,211.55115166254186,135.30729166666666,210.8178458281773,139.47395833333334L210.08453999381274,143.640625" id="edge3" class="relation" marker-end="url(#extensionEnd)"></path><g class="classLabel"><rect class="box" x="207.765625" y="99.21875" width="13.46875" height="17.015625"></rect><text class="label" x="214.484375" y="111.33273424237645" fill="red" text-anchor="middle">id</text></g></svg>